<svg width="24" height="24" viewBox="0 0 24 24" fill="none" xmlns="http://www.w3.org/2000/svg">
<path d="M11.6977 9.13951C8.53488 9.4534 5.63566 7.17772 4.5814 6.00064C3.7907 7.96244 3.7907 9.92422 4.5814 12.2784C5.21395 14.1617 7.48062 15.4173 8.53488 15.8096C6.95349 17.379 4.18605 17.5098 3 17.379C6.55814 19.3408 12.093 20.1256 16.0465 16.202C19.2093 13.0631 19.2093 9.1395 18.814 7.57007C19.4465 6.94229 19.8682 5.73906 20 5.21592C18.7349 6.15759 17.6279 6.00064 17.6279 6.00064C17.3643 5.47749 16.2837 4.58814 14.0698 5.21592C11.8558 5.84369 11.5659 8.09322 11.6977 9.13951Z" stroke="#131315" stroke-width="1.2" stroke-linejoin="round"/>
</svg>
