<svg width="48" height="48" viewBox="0 0 48 48" fill="none" xmlns="http://www.w3.org/2000/svg">
<mask id="path-1-inside-1" fill="white">
<path fill-rule="evenodd" clip-rule="evenodd" d="M13.9074 11.6442C13.1679 11.2005 12.2512 11.8383 12.4101 12.686L13.1143 16.4424C11.4459 17.9648 10.1526 19.8069 9.36522 21.8538L7.12861 22.7485C6.74895 22.9003 6.5 23.268 6.5 23.6769V29.4337C6.5 29.785 6.6843 30.1105 6.9855 30.2912L9.68804 31.9127C10.8113 34.3642 12.6747 36.4839 15.0352 38.0579L15.7552 42.1723C15.8389 42.6508 16.2544 42.9999 16.7402 42.9999H20.6172C21.1215 42.9999 21.5469 42.6244 21.6095 42.1239L21.7844 40.7247C22.8245 40.9052 23.8997 40.9999 25 40.9999C26.1985 40.9999 27.3671 40.8876 28.493 40.6744L28.7552 42.1724C28.8389 42.6509 29.2544 43 29.7402 43H33.6172C34.1215 43 34.5469 42.6245 34.6095 42.1241L35.1319 37.9451C39.0074 35.2918 41.5 31.1517 41.5 26.4999C41.5 18.4918 34.1127 11.9999 25 11.9999C22.2162 11.9999 19.5934 12.6057 17.2931 13.6755L13.9074 11.6442Z"/>
</mask>
<path d="M12.4101 12.686L13.393 12.5017L13.393 12.5017L12.4101 12.686ZM13.9074 11.6442L13.393 12.5017L13.393 12.5017L13.9074 11.6442ZM13.1143 16.4424L13.7884 17.1811L14.1999 16.8057L14.0972 16.2582L13.1143 16.4424ZM9.36522 21.8538L9.73661 22.7823L10.1419 22.6202L10.2985 22.2128L9.36522 21.8538ZM7.12861 22.7485L7.5 23.6769L7.5 23.6769L7.12861 22.7485ZM6.9855 30.2912L7.5 29.4337L7.5 29.4337L6.9855 30.2912ZM9.68804 31.9127L10.5972 31.4962L10.4681 31.2146L10.2025 31.0552L9.68804 31.9127ZM15.0352 38.0579L16.0202 37.8856L15.9463 37.4636L15.59 37.226L15.0352 38.0579ZM15.7552 42.1723L16.7402 41.9999L16.7402 41.9999L15.7552 42.1723ZM21.6095 42.1239L20.6172 41.9999L20.6172 41.9999L21.6095 42.1239ZM21.7844 40.7247L21.9554 39.7394L20.9222 39.5601L20.7921 40.6007L21.7844 40.7247ZM28.493 40.6744L29.478 40.502L29.3032 39.5031L28.3069 39.6918L28.493 40.6744ZM28.7552 42.1724L29.7402 42L29.7402 42L28.7552 42.1724ZM34.6095 42.1241L33.6172 42L33.6172 42L34.6095 42.1241ZM35.1319 37.9451L34.5669 37.1199L34.1954 37.3743L34.1396 37.8211L35.1319 37.9451ZM17.2931 13.6755L16.7786 14.533L17.2336 14.8061L17.7148 14.5823L17.2931 13.6755ZM13.393 12.5017L13.393 12.5017L14.4219 10.7867C12.9429 9.89929 11.1094 11.1749 11.4272 12.8702L13.393 12.5017ZM14.0972 16.2582L13.393 12.5017L11.4272 12.8702L12.1315 16.6267L14.0972 16.2582ZM12.4403 15.7037C10.6656 17.323 9.27904 19.2924 8.43188 21.4948L10.2985 22.2128C11.0261 20.3213 12.2261 18.6066 13.7884 17.1811L12.4403 15.7037ZM8.99383 20.9253L6.75722 21.82L7.5 23.6769L9.73661 22.7823L8.99383 20.9253ZM6.75722 21.82C5.9979 22.1237 5.5 22.8591 5.5 23.6769H7.5L7.5 23.6769L6.75722 21.82ZM5.5 23.6769V29.4337H7.5V23.6769H5.5ZM5.5 29.4337C5.5 30.1362 5.8686 30.7873 6.47101 31.1487L7.5 29.4337L7.5 29.4337H5.5ZM6.47101 31.1487L9.17355 32.7702L10.2025 31.0552L7.5 29.4337L6.47101 31.1487ZM8.77893 32.3293C9.98578 34.9633 11.9788 37.2217 14.4804 38.8899L15.59 37.226C13.3707 35.746 11.6368 33.7652 10.5972 31.4962L8.77893 32.3293ZM14.0501 38.2303L14.7701 42.3447L16.7402 41.9999L16.0202 37.8856L14.0501 38.2303ZM14.7701 42.3447C14.9376 43.3017 15.7686 43.9999 16.7402 43.9999V41.9999L16.7402 41.9999L14.7701 42.3447ZM16.7402 43.9999H20.6172V41.9999H16.7402V43.9999ZM20.6172 43.9999C21.6259 43.9999 22.4767 43.2488 22.6018 42.248L20.6172 41.9999L20.6172 41.9999V43.9999ZM22.6018 42.248L22.7767 40.8487L20.7921 40.6007L20.6172 41.9999L22.6018 42.248ZM21.6134 41.71C22.7099 41.9003 23.8423 41.9999 25 41.9999V39.9999C23.957 39.9999 22.9391 39.9102 21.9554 39.7394L21.6134 41.71ZM25 41.9999C26.261 41.9999 27.4919 41.8818 28.6791 41.6569L28.3069 39.6918C27.2423 39.8935 26.136 39.9999 25 39.9999V41.9999ZM27.508 40.8467L27.7701 42.3448L29.7402 42L29.478 40.502L27.508 40.8467ZM27.7701 42.3448C27.9376 43.3018 28.7686 44 29.7402 44V42L29.7402 42L27.7701 42.3448ZM29.7402 44H33.6172V42H29.7402V44ZM33.6172 44C34.6259 44 35.4767 43.249 35.6018 42.2481L33.6172 42L33.6172 42V44ZM35.6018 42.2481L36.1241 38.0691L34.1396 37.8211L33.6172 42L35.6018 42.2481ZM35.6968 38.7702C39.8039 35.9583 42.5 31.528 42.5 26.4999H40.5C40.5 30.7753 38.2108 34.6252 34.5669 37.1199L35.6968 38.7702ZM42.5 26.4999C42.5 17.822 34.5397 10.9999 25 10.9999V12.9999C33.6857 12.9999 40.5 19.1615 40.5 26.4999H42.5ZM25 10.9999C22.0709 10.9999 19.3042 11.6374 16.8714 12.7688L17.7148 14.5823C19.8827 13.5741 22.3615 12.9999 25 12.9999V10.9999ZM13.393 12.5017L16.7786 14.533L17.8076 12.8181L14.4219 10.7867L13.393 12.5017Z" fill="#131315" mask="url(#path-1-inside-1)"/>
<circle cx="25" cy="7" r="3.5" stroke="#131315"/>
<path d="M28.6047 15.9157C27.4603 15.645 26.2508 15.4999 24.9999 15.4999C23.749 15.4999 22.5394 15.645 21.395 15.9157" stroke="#131315" stroke-linecap="round" stroke-linejoin="round"/>
<circle cx="15.75" cy="22.25" r="1.25" fill="#131315"/>
</svg>
