<svg width="48" height="48" viewBox="0 0 48 48" fill="none" xmlns="http://www.w3.org/2000/svg">
<path d="M37.1315 34.6559C38.8575 36.3819 38.8603 39.1775 37.1378 40.9C35.4153 42.6225 32.6198 42.6197 30.8938 40.8937C29.1678 39.1677 29.1649 36.3721 30.8874 34.6496" stroke="#131315"/>
<path d="M22.1315 34.6559C23.8575 36.3819 23.8603 39.1775 22.1378 40.9C20.4153 42.6225 17.6198 42.6197 15.8938 40.8937C14.1678 39.1677 14.1649 36.3721 15.8874 34.6496" stroke="#131315"/>
<path d="M31.2915 14L31.2915 34" stroke="#131315"/>
<path d="M12.125 11.6877H29.5832C30.5267 11.6877 31.2915 12.4526 31.2915 13.3961V17.461C31.2915 18.4045 32.0564 19.1694 32.9998 19.1694H37.73C38.9585 19.1694 40.0629 19.9184 40.5173 21.0597L43.4622 28.457C43.5422 28.658 43.5833 28.8724 43.5833 29.0888V32.7809C43.5833 33.7244 42.8185 34.4892 41.875 34.4892H12.125" stroke="#131315" stroke-linecap="round" stroke-linejoin="round"/>
<line x1="19.1665" y1="23.875" x2="8.20817" y2="23.875" stroke="#131315" stroke-linecap="round" stroke-linejoin="round"/>
<line x1="19.1665" y1="18.75" x2="11.6248" y2="18.75" stroke="#131315" stroke-linecap="round" stroke-linejoin="round"/>
<line x1="19.1665" y1="29" x2="4.7915" y2="29" stroke="#131315" stroke-linecap="round" stroke-linejoin="round"/>
</svg>
